<?xml version="1.0" encoding="UTF-8"?>
<svg xmlns="http://www.w3.org/2000/svg" xmlns:xlink="http://www.w3.org/1999/xlink" width="100px" height="49px" viewBox="0 0 99 49" version="1.1">
<g id="surface1">
<path style=" stroke:none;fill-rule:nonzero;fill:rgb(12.54902%,35.686275%,69.803923%);fill-opacity:1;" d="M 20.839844 15.773438 C 24.148438 22.558594 30.46875 25.910156 35.347656 25.71875 C 40.515625 25.527344 44.144531 21.15625 40.3125 13.128906 C 46.808594 23.953125 42.121094 32.457031 33.0625 32.109375 C 24.257812 31.652344 17.140625 25.035156 14.152344 19.304688 C 15.496094 18.164062 18.636719 16.589844 20.839844 15.773438 Z M 20.839844 15.773438 "/>
<path style=" stroke:none;fill-rule:nonzero;fill:rgb(80.392158%,64.313728%,29.803923%);fill-opacity:1;" d="M 27.054688 9.261719 C 24.671875 6.859375 20.269531 4.722656 16.554688 5.394531 C 14.09375 5.851562 11.867188 7.710938 11.890625 11.699219 C 11.496094 -1.824219 28.300781 -1.355469 38.207031 10.234375 C 34.730469 9.488281 30.636719 9.191406 27.054688 9.261719 Z M 27.054688 9.261719 "/>
<path style=" stroke:none;fill-rule:nonzero;fill:rgb(74.117649%,73.725492%,73.725492%);fill-opacity:1;" d="M 4.546875 15.710938 C 20.910156 6.824219 40.691406 10.726562 47.535156 13.226562 C 39.359375 11.125 22.125 11.207031 11.308594 20.074219 C 9.128906 18.632812 6.710938 17.152344 4.546875 15.710938 Z M 4.546875 15.710938 "/>
<path style="fill-rule:nonzero;fill:rgb(12.54902%,35.686275%,69.803923%);fill-opacity:1;stroke-width:2.0807;stroke-linecap:butt;stroke-linejoin:miter;stroke:rgb(12.54902%,35.686275%,69.803923%);stroke-opacity:1;stroke-miterlimit:5.3333;" d="M 673.113398 242.511088 C 673.113398 251.485971 669.10931 258.087062 661.002673 262.509468 C 654.799619 265.891308 647.28375 267.484675 638.389424 267.484675 C 630.51253 267.484675 623.095122 265.501095 616.399762 261.598972 C 607.997742 256.786354 603.796732 250.51044 603.796732 242.511088 L 603.698271 220.399058 C 603.698271 216.00917 604.584421 212.2046 609.015174 208.692689 L 615.612073 203.294752 C 618.401806 201.21362 620.600772 198.091922 620.600772 193.89714 L 620.600772 177.605776 L 636.288919 177.605776 L 636.288919 197.213944 C 636.190458 201.311173 633.991492 205.603508 630.184326 208.595136 L 624.407937 213.115095 C 621.388462 215.488886 618.992573 217.797643 619.091034 223.585792 L 619.091034 242.413535 C 619.091034 246.413211 621.191539 249.892604 625.589472 252.591572 C 629.298176 254.997881 633.696108 256.201036 638.389424 256.201036 C 643.410944 256.201036 647.611954 254.997881 651.189376 253.014302 C 655.390387 250.412887 657.39243 246.803423 657.39243 242.413535 L 657.195508 194.189799 C 657.195508 182.90616 666.286756 177.605776 672.686733 177.605776 Z M 673.113398 242.511088 " transform="matrix(0.119019,0,0,0.120127,0,0.0241405)"/>
<path style="fill-rule:nonzero;fill:rgb(12.54902%,35.686275%,69.803923%);fill-opacity:1;stroke-width:2.0807;stroke-linecap:butt;stroke-linejoin:miter;stroke:rgb(12.54902%,35.686275%,69.803923%);stroke-opacity:1;stroke-miterlimit:5.3333;" d="M 487.185883 265.696202 L 473.302858 265.696202 L 473.302858 220.399058 C 463.292638 232.885851 439.596316 225.114123 425.811752 230.609613 C 415.703072 234.511736 414.915382 244.884879 423.514325 250.900652 C 430.800451 255.908377 443.403481 257.013978 450.886531 251.616041 L 450.886531 262.509468 C 434.607617 269.793431 403.887731 263.484999 403.887731 241.405486 C 403.887731 233.60124 407.301051 227.585468 414.193334 223.390685 C 429.586097 214.285732 447.50603 220.399058 463.588022 214.903568 C 468.609542 213.115095 473.696702 209.895844 473.401319 204.010142 C 472.383887 184.206868 416.195377 186.613177 415.899994 213.115095 C 411.4036 211.001445 408.285663 209.505631 403.592347 207.391981 C 409.795401 179.914532 437.200428 176.305069 455.809589 178.711378 C 465.885449 180.012086 473.302858 185.214916 473.302858 184.59708 C 473.302858 180.987616 473.302858 179.296696 473.302858 175.687233 C 473.302858 167.687881 482.197184 163.493098 487.415626 163.493098 Z M 487.185883 265.696202 " transform="matrix(0.119019,0,0,0.120127,0,0.0241405)"/>
<path style=" stroke:none;fill-rule:nonzero;fill:rgb(12.54902%,35.686275%,69.803923%);fill-opacity:1;" d="M 59.785156 21.441406 L 61.78125 21.417969 C 61.804688 23.832031 61.820312 26.234375 61.820312 28.648438 C 61.820312 31.148438 67.9375 30.777344 67.925781 29.035156 C 67.9375 27.207031 67.9375 25.371094 67.9375 23.53125 C 67.972656 22.441406 68.863281 21.527344 69.996094 21.429688 L 70.03125 34.066406 L 67.914062 34.066406 L 67.914062 31.378906 C 67.554688 32.78125 59.785156 32.710938 59.785156 28.648438 Z M 59.785156 21.441406 "/>
<path style=" stroke:none;fill-rule:nonzero;fill:rgb(13.725491%,12.156863%,12.54902%);fill-opacity:1;" d="M 4.203125 39.066406 L 4.203125 41.214844 L 3.441406 41.214844 L 3.441406 39.691406 C 3.082031 39.691406 2.820312 39.726562 2.640625 39.761719 C 2.320312 39.859375 2.167969 40.039062 2.167969 40.289062 C 2.167969 40.433594 2.226562 40.554688 2.320312 40.628906 C 2.417969 40.699219 2.535156 40.734375 2.679688 40.734375 C 2.820312 40.734375 2.953125 40.699219 3.070312 40.613281 L 3.140625 41.035156 C 2.976562 41.203125 2.726562 41.289062 2.378906 41.289062 C 2.082031 41.289062 1.855469 41.191406 1.65625 41.023438 C 1.453125 40.84375 1.355469 40.601562 1.355469 40.316406 C 1.355469 39.785156 1.75 39.449219 2.5 39.316406 C 2.714844 39.269531 2.953125 39.257812 3.226562 39.257812 C 3.320312 39.257812 3.390625 39.257812 3.429688 39.257812 L 3.429688 39.015625 C 3.429688 38.730469 3.214844 38.585938 2.773438 38.585938 C 2.429688 38.585938 2.214844 38.71875 2.140625 39.003906 L 1.464844 38.910156 C 1.617188 38.320312 2.09375 38.019531 2.902344 38.019531 C 3.09375 38.019531 3.261719 38.042969 3.414062 38.082031 C 3.464844 38.09375 3.523438 38.105469 3.570312 38.128906 C 3.640625 38.019531 3.75 37.9375 3.902344 37.863281 C 4.046875 37.792969 4.191406 37.757812 4.320312 37.757812 C 4.34375 37.757812 4.367188 37.757812 4.378906 37.757812 L 4.4375 38.367188 C 4.378906 38.355469 4.332031 38.355469 4.273438 38.355469 C 4.128906 38.355469 4.046875 38.378906 4 38.429688 C 4.035156 38.476562 4.070312 38.535156 4.082031 38.585938 C 4.164062 38.71875 4.203125 38.886719 4.203125 39.066406 Z M 4.203125 39.066406 "/>
<path style=" stroke:none;fill-rule:nonzero;fill:rgb(13.725491%,12.156863%,12.54902%);fill-opacity:1;" d="M 3.820312 37.648438 C 3.640625 37.648438 3.476562 37.585938 3.34375 37.480469 C 3.203125 37.371094 3.128906 37.226562 3.128906 37.035156 C 3.128906 36.855469 3.214844 36.710938 3.355469 36.601562 C 3.488281 36.496094 3.640625 36.445312 3.820312 36.445312 C 4 36.445312 4.164062 36.496094 4.296875 36.589844 C 4.4375 36.699219 4.5 36.855469 4.5 37.035156 C 4.5 37.214844 4.425781 37.359375 4.296875 37.480469 C 4.164062 37.585938 4 37.648438 3.820312 37.648438 M 4.082031 37.046875 C 4.082031 36.902344 4 36.832031 3.832031 36.832031 C 3.773438 36.832031 3.714844 36.855469 3.652344 36.890625 C 3.59375 36.925781 3.570312 36.988281 3.570312 37.046875 C 3.570312 37.105469 3.59375 37.167969 3.652344 37.214844 C 3.703125 37.261719 3.761719 37.289062 3.832031 37.289062 C 4 37.277344 4.082031 37.191406 4.082031 37.046875 M 4.796875 38.71875 L 4.605469 38.355469 C 4.953125 38.140625 5.273438 38.019531 5.628906 38.019531 C 6.09375 38.019531 6.332031 38.222656 6.332031 38.632812 L 6.332031 41.214844 L 5.570312 41.214844 L 5.570312 39.03125 C 5.570312 39.003906 5.570312 38.96875 5.570312 38.945312 C 5.570312 38.667969 5.464844 38.550781 5.238281 38.550781 C 5.140625 38.550781 5.058594 38.574219 4.964844 38.621094 C 4.9375 38.632812 4.878906 38.65625 4.796875 38.71875 Z M 4.796875 38.71875 "/>
<path style=" stroke:none;fill-rule:nonzero;fill:rgb(13.725491%,12.156863%,12.54902%);fill-opacity:1;" d="M 9.496094 41.214844 L 8.820312 41.214844 L 8.785156 40.628906 C 8.558594 41.070312 8.273438 41.300781 7.902344 41.300781 C 7.59375 41.300781 7.332031 41.203125 7.140625 41.023438 C 6.9375 40.820312 6.84375 40.578125 6.84375 40.277344 L 6.84375 38.117188 L 7.605469 38.117188 L 7.605469 40.027344 C 7.605469 40.457031 7.761719 40.664062 8.082031 40.664062 C 8.285156 40.664062 8.4375 40.578125 8.570312 40.375 C 8.675781 40.21875 8.734375 40.039062 8.734375 39.820312 L 8.734375 38.105469 L 9.496094 38.105469 C 9.496094 38.105469 9.496094 41.214844 9.496094 41.214844 Z M 9.496094 41.214844 "/>
<path style=" stroke:none;fill-rule:nonzero;fill:rgb(13.725491%,12.156863%,12.54902%);fill-opacity:1;" d="M 8.722656 37.457031 C 8.582031 37.457031 8.4375 37.417969 8.273438 37.347656 C 8.082031 37.261719 7.984375 37.15625 7.960938 37.023438 L 8.472656 36.664062 C 8.523438 36.757812 8.605469 36.832031 8.746094 36.890625 C 8.867188 36.949219 8.984375 36.976562 9.09375 36.976562 L 10.222656 36.976562 L 10.222656 37.457031 Z M 8.722656 37.457031 "/>
<path style=" stroke:none;fill-rule:nonzero;fill:rgb(13.725491%,12.156863%,12.54902%);fill-opacity:1;" d="M 10.019531 39.617188 C 10.019531 39.328125 10.128906 39.089844 10.332031 38.910156 C 10.296875 38.898438 10.257812 38.875 10.222656 38.859375 C 10.140625 38.847656 10.070312 38.847656 10.007812 38.847656 L 10.007812 38.5 C 10.117188 38.417969 10.320312 38.320312 10.582031 38.210938 C 10.902344 38.09375 11.199219 38.03125 11.460938 38.03125 C 12.28125 38.03125 12.710938 38.355469 12.710938 38.992188 L 12.710938 41.226562 L 11.960938 41.226562 L 11.960938 39.136719 C 11.960938 38.765625 11.769531 38.585938 11.390625 38.585938 C 11.210938 38.585938 11.070312 38.632812 10.960938 38.730469 C 10.84375 38.835938 10.78125 38.96875 10.78125 39.136719 L 10.78125 41.226562 L 10.019531 41.226562 Z M 10.019531 39.617188 "/>
<path style=" stroke:none;fill-rule:nonzero;fill:rgb(13.725491%,12.156863%,12.54902%);fill-opacity:1;" d="M 13.84375 38.441406 L 14.425781 40.613281 L 14.589844 40.613281 C 14.78125 40.613281 14.9375 40.507812 15.019531 40.289062 C 15.089844 40.132812 15.128906 39.929688 15.128906 39.703125 C 15.128906 38.992188 14.9375 38.632812 14.554688 38.632812 C 14.53125 38.632812 14.496094 38.632812 14.449219 38.621094 C 14.367188 38.621094 14.304688 38.632812 14.234375 38.667969 L 14.128906 38.1875 C 14.269531 38.09375 14.460938 38.042969 14.699219 38.042969 C 15.117188 38.042969 15.425781 38.210938 15.640625 38.550781 C 15.816406 38.835938 15.902344 39.210938 15.902344 39.652344 C 15.902344 40.039062 15.816406 40.375 15.664062 40.664062 C 15.460938 41.011719 15.199219 41.191406 14.839844 41.191406 L 13.890625 41.191406 L 13.128906 38.417969 Z M 13.84375 38.441406 "/>
<path style=" stroke:none;fill-rule:nonzero;fill:rgb(13.725491%,12.156863%,12.54902%);fill-opacity:1;" d="M 16.484375 38.71875 L 16.292969 38.355469 C 16.628906 38.140625 16.972656 38.019531 17.316406 38.019531 C 17.78125 38.019531 18.019531 38.238281 18.019531 38.644531 L 18.019531 41.214844 L 17.257812 41.214844 L 17.257812 39.03125 C 17.257812 39.003906 17.257812 38.96875 17.257812 38.945312 C 17.257812 38.667969 17.152344 38.550781 16.925781 38.550781 C 16.839844 38.550781 16.746094 38.574219 16.652344 38.621094 C 16.628906 38.632812 16.566406 38.65625 16.484375 38.71875 Z M 16.484375 38.71875 "/>
<path style=" stroke:none;fill-rule:nonzero;fill:rgb(13.725491%,12.156863%,12.54902%);fill-opacity:1;" d="M 21.183594 41.214844 L 20.519531 41.214844 L 20.484375 40.628906 C 20.246094 41.070312 19.960938 41.300781 19.601562 41.300781 C 19.292969 41.300781 19.03125 41.203125 18.851562 41.023438 C 18.648438 40.820312 18.542969 40.578125 18.542969 40.277344 L 18.542969 38.117188 L 19.304688 38.117188 L 19.304688 40.027344 C 19.304688 40.457031 19.472656 40.664062 19.792969 40.664062 C 19.984375 40.664062 20.136719 40.578125 20.269531 40.375 C 20.375 40.21875 20.4375 40.039062 20.4375 39.820312 L 20.4375 38.105469 L 21.199219 38.105469 Z M 21.183594 41.214844 "/>
<path style=" stroke:none;fill-rule:nonzero;fill:rgb(13.725491%,12.156863%,12.54902%);fill-opacity:1;" d="M 24.351562 41.214844 L 23.671875 41.214844 L 23.648438 40.628906 C 23.421875 41.070312 23.125 41.300781 22.769531 41.300781 C 22.457031 41.300781 22.207031 41.203125 22.019531 41.023438 C 21.804688 40.820312 21.710938 40.578125 21.710938 40.277344 L 21.710938 38.117188 L 22.472656 38.117188 L 22.472656 40.027344 C 22.472656 40.457031 22.625 40.664062 22.945312 40.664062 C 23.136719 40.664062 23.292969 40.578125 23.421875 40.375 C 23.53125 40.21875 23.589844 40.039062 23.589844 39.820312 L 23.589844 38.105469 L 24.339844 38.105469 Z M 24.351562 41.214844 "/>
<path style=" stroke:none;fill-rule:nonzero;fill:rgb(13.725491%,12.156863%,12.54902%);fill-opacity:1;" d="M 25.46875 36.78125 L 26.160156 36.78125 L 26.28125 37.261719 L 25.851562 37.261719 C 25.613281 37.261719 25.492188 37.324219 25.492188 37.457031 C 25.492188 37.503906 25.542969 37.613281 25.613281 37.78125 C 25.636719 37.828125 25.636719 37.886719 25.636719 37.960938 L 25.636719 41.226562 L 24.886719 41.226562 L 24.886719 37.960938 C 24.886719 37.851562 24.875 37.769531 24.839844 37.683594 C 24.792969 37.601562 24.757812 37.527344 24.71875 37.445312 C 24.695312 37.394531 24.683594 37.347656 24.683594 37.289062 C 24.683594 37.105469 24.78125 36.988281 24.96875 36.890625 C 25.101562 36.820312 25.269531 36.78125 25.46875 36.78125 Z M 25.46875 36.78125 "/>
<path style=" stroke:none;fill-rule:nonzero;fill:rgb(13.725491%,12.156863%,12.54902%);fill-opacity:1;" d="M 27.613281 38.210938 L 27.46875 38.667969 C 27.339844 38.609375 27.207031 38.574219 27.113281 38.574219 C 26.910156 38.574219 26.804688 38.667969 26.804688 38.847656 C 26.804688 38.859375 26.804688 38.898438 26.804688 38.910156 C 26.804688 39.054688 26.886719 39.160156 27.054688 39.246094 C 27.183594 39.304688 27.328125 39.339844 27.492188 39.339844 L 27.492188 39.761719 C 27.328125 39.761719 27.207031 39.785156 27.136719 39.820312 C 27.015625 39.871094 26.933594 39.976562 26.910156 40.132812 C 26.898438 40.171875 26.898438 40.195312 26.898438 40.230469 C 26.898438 40.578125 27.101562 40.734375 27.527344 40.734375 C 27.875 40.734375 28.054688 40.53125 28.054688 40.109375 L 28.054688 38.105469 L 28.816406 38.105469 L 28.816406 40.195312 C 28.816406 40.925781 28.386719 41.300781 27.527344 41.300781 C 26.578125 41.300781 26.101562 40.953125 26.101562 40.242188 C 26.101562 40.050781 26.160156 39.894531 26.304688 39.75 C 26.339844 39.703125 26.410156 39.652344 26.503906 39.582031 C 26.21875 39.484375 26.078125 39.234375 26.078125 38.8125 C 26.078125 38.574219 26.148438 38.394531 26.304688 38.261719 C 26.445312 38.117188 26.636719 38.042969 26.875 38.042969 C 27.160156 38.042969 27.421875 38.09375 27.613281 38.210938 Z M 27.613281 38.210938 "/>
<path style=" stroke:none;fill-rule:nonzero;fill:rgb(13.725491%,12.156863%,12.54902%);fill-opacity:1;" d="M 30.089844 40.207031 C 30.089844 40.53125 30.277344 40.699219 30.648438 40.699219 C 31.015625 40.699219 31.207031 40.53125 31.207031 40.207031 L 31.207031 38.105469 L 31.96875 38.105469 L 31.96875 40.160156 C 31.96875 40.914062 31.539062 41.300781 30.671875 41.300781 C 30.230469 41.300781 29.898438 41.226562 29.695312 41.058594 C 29.445312 40.878906 29.328125 40.578125 29.328125 40.160156 L 29.328125 38.105469 L 30.089844 38.105469 Z M 30.089844 40.207031 "/>
<path style=" stroke:none;fill-rule:nonzero;fill:rgb(13.725491%,12.156863%,12.54902%);fill-opacity:1;" d="M 32.5625 38.71875 L 32.375 38.355469 C 32.707031 38.140625 33.050781 38.019531 33.398438 38.019531 C 33.859375 38.019531 34.097656 38.238281 34.097656 38.644531 L 34.097656 41.214844 L 33.335938 41.214844 L 33.335938 39.03125 C 33.335938 39.003906 33.335938 38.96875 33.335938 38.945312 C 33.335938 38.667969 33.230469 38.550781 33.003906 38.550781 C 32.921875 38.550781 32.835938 38.574219 32.742188 38.621094 C 32.707031 38.632812 32.648438 38.65625 32.5625 38.71875 Z M 32.5625 38.71875 "/>
<path style=" stroke:none;fill-rule:nonzero;fill:rgb(13.725491%,12.156863%,12.54902%);fill-opacity:1;" d="M 36.074219 38.210938 L 35.933594 38.667969 C 35.789062 38.609375 35.671875 38.574219 35.574219 38.574219 C 35.359375 38.574219 35.265625 38.667969 35.265625 38.847656 C 35.265625 38.859375 35.265625 38.898438 35.265625 38.910156 C 35.265625 39.054688 35.347656 39.160156 35.515625 39.246094 C 35.644531 39.304688 35.789062 39.339844 35.957031 39.339844 L 35.957031 39.761719 C 35.789062 39.761719 35.671875 39.785156 35.597656 39.820312 C 35.480469 39.871094 35.40625 39.976562 35.371094 40.132812 C 35.371094 40.171875 35.359375 40.195312 35.359375 40.230469 C 35.359375 40.578125 35.574219 40.734375 35.992188 40.734375 C 36.335938 40.734375 36.503906 40.53125 36.503906 40.109375 L 36.503906 38.105469 L 37.277344 38.105469 L 37.277344 40.195312 C 37.277344 40.925781 36.847656 41.300781 35.992188 41.300781 C 35.039062 41.300781 34.5625 40.953125 34.5625 40.242188 C 34.5625 40.050781 34.621094 39.894531 34.765625 39.75 C 34.800781 39.703125 34.871094 39.652344 34.96875 39.582031 C 34.683594 39.484375 34.550781 39.234375 34.550781 38.8125 C 34.550781 38.574219 34.621094 38.394531 34.765625 38.261719 C 34.921875 38.117188 35.097656 38.042969 35.335938 38.042969 C 35.621094 38.042969 35.882812 38.09375 36.074219 38.210938 Z M 36.074219 38.210938 "/>
<path style=" stroke:none;fill-rule:nonzero;fill:rgb(13.725491%,12.156863%,12.54902%);fill-opacity:1;" d="M 37.777344 41.214844 L 37.777344 38.105469 L 38.539062 38.105469 L 38.539062 41.214844 Z M 37.777344 41.214844 "/>
<path style=" stroke:none;fill-rule:nonzero;fill:rgb(13.725491%,12.156863%,12.54902%);fill-opacity:1;" d="M 39.050781 41.214844 L 39.050781 38.105469 L 39.8125 38.105469 L 39.8125 41.214844 Z M 39.050781 41.214844 "/>
<path style=" stroke:none;fill-rule:nonzero;fill:rgb(13.725491%,12.156863%,12.54902%);fill-opacity:1;" d="M 43.050781 39.066406 L 43.050781 41.214844 L 42.289062 41.214844 L 42.289062 39.691406 C 41.929688 39.691406 41.667969 39.726562 41.488281 39.761719 C 41.179688 39.859375 41.015625 40.039062 41.015625 40.289062 C 41.015625 40.433594 41.074219 40.554688 41.179688 40.628906 C 41.277344 40.699219 41.394531 40.734375 41.539062 40.734375 C 41.679688 40.734375 41.8125 40.699219 41.917969 40.613281 L 41.988281 41.035156 C 41.824219 41.203125 41.574219 41.289062 41.214844 41.289062 C 40.929688 41.289062 40.691406 41.191406 40.492188 41.023438 C 40.300781 40.84375 40.203125 40.601562 40.203125 40.316406 C 40.203125 39.785156 40.585938 39.449219 41.347656 39.316406 C 41.5625 39.269531 41.8125 39.257812 42.074219 39.257812 C 42.167969 39.257812 42.238281 39.257812 42.289062 39.257812 L 42.289062 39.015625 C 42.289062 38.730469 42.074219 38.585938 41.632812 38.585938 C 41.289062 38.585938 41.074219 38.71875 41.003906 39.003906 L 40.335938 38.910156 C 40.476562 38.320312 40.953125 38.019531 41.777344 38.019531 C 42.621094 38.019531 43.050781 38.367188 43.050781 39.066406 Z M 43.050781 39.066406 "/>
<path style=" stroke:none;fill-rule:nonzero;fill:rgb(13.725491%,12.156863%,12.54902%);fill-opacity:1;" d="M 44.261719 38.65625 L 44.761719 38.65625 L 44.761719 39.210938 L 44.050781 39.210938 C 43.894531 39.210938 43.75 39.160156 43.621094 39.078125 C 43.476562 38.980469 43.382812 38.859375 43.324219 38.71875 L 43.871094 38.34375 C 43.871094 38.429688 43.917969 38.5 44.011719 38.5625 C 44.085938 38.632812 44.179688 38.65625 44.261719 38.65625 M 44.261719 40.363281 L 44.761719 40.363281 L 44.761719 40.914062 L 44.050781 40.914062 C 43.894531 40.914062 43.75 40.867188 43.621094 40.769531 C 43.476562 40.675781 43.382812 40.566406 43.324219 40.421875 L 43.871094 40.039062 C 43.871094 40.121094 43.917969 40.195312 44.011719 40.265625 C 44.085938 40.328125 44.179688 40.363281 44.261719 40.363281 Z M 44.261719 40.363281 "/>
<path style=" stroke:none;fill-rule:nonzero;fill:rgb(13.725491%,12.156863%,12.54902%);fill-opacity:1;" d="M 45.238281 41.214844 L 45.238281 38.105469 L 46 38.105469 L 46 41.214844 Z M 45.238281 41.214844 "/>
<path style=" stroke:none;fill-rule:nonzero;fill:rgb(13.725491%,12.156863%,12.54902%);fill-opacity:1;" d="M 46.511719 41.214844 L 46.511719 38.105469 L 47.273438 38.105469 L 47.273438 41.214844 Z M 46.511719 41.214844 "/>
<path style=" stroke:none;fill-rule:nonzero;fill:rgb(13.725491%,12.156863%,12.54902%);fill-opacity:1;" d="M 48.773438 40.710938 C 48.917969 40.710938 49 40.628906 49 40.445312 L 49 39.003906 L 49.714844 39.003906 L 49.714844 40.433594 C 49.714844 40.613281 49.785156 40.710938 49.964844 40.710938 C 50.09375 40.710938 50.15625 40.628906 50.15625 40.433594 L 50.15625 38.105469 L 50.917969 38.105469 L 50.917969 40.160156 C 50.917969 40.542969 50.867188 40.808594 50.773438 40.988281 C 50.644531 41.191406 50.417969 41.300781 50.082031 41.300781 C 49.953125 41.300781 49.832031 41.265625 49.691406 41.191406 C 49.558594 41.109375 49.453125 41.011719 49.382812 40.914062 C 49.320312 41.011719 49.226562 41.121094 49.09375 41.191406 C 48.964844 41.277344 48.832031 41.300781 48.726562 41.300781 C 48.320312 41.300781 48.070312 41.167969 47.917969 40.902344 C 47.796875 40.675781 47.738281 40.265625 47.738281 39.679688 C 47.738281 38.609375 48.070312 38.066406 48.738281 38.066406 C 48.964844 38.066406 49.144531 38.117188 49.261719 38.210938 L 49.179688 38.632812 C 49.179688 38.632812 49.15625 38.632812 49.15625 38.632812 C 49.09375 38.621094 49.011719 38.597656 48.90625 38.597656 C 48.667969 38.597656 48.523438 38.777344 48.488281 39.101562 C 48.476562 39.222656 48.476562 39.425781 48.476562 39.714844 C 48.476562 40.039062 48.476562 40.230469 48.488281 40.300781 C 48.511719 40.578125 48.605469 40.710938 48.773438 40.710938 Z M 48.773438 40.710938 "/>
<path style=" stroke:none;fill-rule:nonzero;fill:rgb(13.725491%,12.156863%,12.54902%);fill-opacity:1;" d="M 54.09375 41.214844 L 53.414062 41.214844 L 53.378906 40.628906 C 53.152344 41.070312 52.855469 41.300781 52.5 41.300781 C 52.191406 41.300781 51.941406 41.203125 51.75 41.023438 C 51.546875 40.820312 51.453125 40.578125 51.453125 40.277344 L 51.453125 38.117188 L 52.214844 38.117188 L 52.214844 40.027344 C 52.214844 40.457031 52.367188 40.664062 52.691406 40.664062 C 52.890625 40.664062 53.046875 40.578125 53.164062 40.375 C 53.273438 40.21875 53.332031 40.039062 53.332031 39.820312 L 53.332031 38.105469 L 54.09375 38.105469 Z M 54.09375 41.214844 "/>
<path style=" stroke:none;fill-rule:nonzero;fill:rgb(13.725491%,12.156863%,12.54902%);fill-opacity:1;" d="M 54.617188 39.617188 C 54.617188 39.328125 54.714844 39.089844 54.925781 38.910156 C 54.890625 38.898438 54.855469 38.875 54.832031 38.859375 C 54.75 38.847656 54.675781 38.847656 54.628906 38.847656 L 54.628906 38.5 C 54.738281 38.417969 54.925781 38.320312 55.199219 38.210938 C 55.523438 38.09375 55.820312 38.03125 56.082031 38.03125 C 56.902344 38.03125 57.332031 38.355469 57.332031 38.992188 L 57.332031 41.226562 L 56.582031 41.226562 L 56.582031 39.136719 C 56.582031 38.765625 56.390625 38.585938 56.011719 38.585938 C 55.832031 38.585938 55.6875 38.632812 55.582031 38.730469 C 55.460938 38.835938 55.402344 38.96875 55.402344 39.136719 L 55.402344 41.226562 L 54.640625 41.226562 L 54.640625 39.617188 Z M 54.617188 39.617188 "/>
<path style=" stroke:none;fill-rule:nonzero;fill:rgb(13.725491%,12.156863%,12.54902%);fill-opacity:1;" d="M 57.914062 38.71875 L 57.722656 38.355469 C 58.070312 38.140625 58.402344 38.019531 58.746094 38.019531 C 59.210938 38.019531 59.449219 38.238281 59.449219 38.644531 L 59.449219 41.214844 L 58.6875 41.214844 L 58.6875 39.03125 C 58.6875 39.003906 58.6875 38.96875 58.6875 38.945312 C 58.6875 38.667969 58.582031 38.550781 58.355469 38.550781 C 58.273438 38.550781 58.1875 38.574219 58.09375 38.621094 C 58.058594 38.632812 57.996094 38.65625 57.914062 38.71875 Z M 57.914062 38.71875 "/>
<path style=" stroke:none;fill-rule:nonzero;fill:rgb(13.725491%,12.156863%,12.54902%);fill-opacity:1;" d="M 61.78125 38.945312 C 61.722656 38.71875 61.542969 38.597656 61.257812 38.597656 C 60.902344 38.597656 60.734375 38.703125 60.734375 38.910156 C 60.734375 39.054688 60.902344 39.148438 61.246094 39.234375 C 61.746094 39.339844 62.03125 39.425781 62.117188 39.472656 C 62.4375 39.640625 62.605469 39.894531 62.605469 40.230469 C 62.605469 40.589844 62.472656 40.867188 62.199219 41.058594 C 61.960938 41.226562 61.664062 41.300781 61.28125 41.300781 C 60.59375 41.300781 60.140625 41.09375 59.949219 40.6875 C 59.902344 40.578125 59.878906 40.496094 59.867188 40.410156 L 60.582031 40.289062 C 60.628906 40.578125 60.867188 40.710938 61.320312 40.710938 C 61.675781 40.710938 61.867188 40.601562 61.867188 40.386719 C 61.867188 40.230469 61.699219 40.109375 61.378906 40.039062 C 60.914062 39.929688 60.628906 39.859375 60.519531 39.785156 C 60.199219 39.605469 60.046875 39.378906 60.046875 39.066406 C 60.046875 38.703125 60.175781 38.429688 60.414062 38.25 C 60.640625 38.082031 60.925781 37.996094 61.292969 37.996094 C 61.59375 37.996094 61.84375 38.054688 62.054688 38.1875 C 62.292969 38.34375 62.449219 38.535156 62.519531 38.8125 Z M 61.78125 38.945312 "/>
<path style=" stroke:none;fill-rule:nonzero;fill:rgb(13.725491%,12.156863%,12.54902%);fill-opacity:1;" d="M 64.066406 39.484375 C 63.960938 39.628906 63.890625 39.714844 63.867188 39.761719 C 63.769531 39.894531 63.734375 40.050781 63.734375 40.207031 C 63.734375 40.554688 63.878906 40.710938 64.175781 40.710938 C 64.484375 40.710938 64.628906 40.554688 64.628906 40.195312 L 64.628906 38.105469 L 65.390625 38.105469 L 65.390625 40.160156 C 65.390625 40.914062 64.984375 41.300781 64.199219 41.300781 C 63.390625 41.300781 62.996094 40.953125 62.996094 40.230469 C 62.996094 40.074219 63.03125 39.90625 63.140625 39.75 C 63.164062 39.703125 63.257812 39.558594 63.425781 39.355469 L 63.640625 39.089844 C 63.734375 38.945312 63.769531 38.847656 63.769531 38.765625 C 63.769531 38.621094 63.699219 38.535156 63.53125 38.535156 C 63.460938 38.535156 63.402344 38.550781 63.328125 38.585938 C 63.304688 38.597656 63.257812 38.621094 63.175781 38.65625 L 63.03125 38.261719 C 63.078125 38.210938 63.175781 38.175781 63.28125 38.128906 C 63.449219 38.066406 63.617188 38.03125 63.792969 38.03125 C 64.152344 38.03125 64.355469 38.210938 64.425781 38.574219 C 64.4375 38.621094 64.4375 38.667969 64.4375 38.71875 C 64.4375 38.859375 64.390625 39.015625 64.292969 39.171875 C 64.28125 39.222656 64.199219 39.328125 64.066406 39.484375 Z M 64.066406 39.484375 "/>
<path style=" stroke:none;fill-rule:nonzero;fill:rgb(13.725491%,12.156863%,12.54902%);fill-opacity:1;" d="M 68.566406 41.214844 L 67.898438 41.214844 L 67.863281 40.628906 C 67.636719 41.070312 67.351562 41.300781 66.984375 41.300781 C 66.675781 41.300781 66.425781 41.203125 66.234375 41.023438 C 66.03125 40.820312 65.925781 40.578125 65.925781 40.277344 L 65.925781 38.117188 L 66.6875 38.117188 L 66.6875 40.027344 C 66.6875 40.457031 66.839844 40.664062 67.164062 40.664062 C 67.351562 40.664062 67.519531 40.578125 67.636719 40.375 C 67.757812 40.21875 67.804688 40.039062 67.804688 39.820312 L 67.804688 38.105469 L 68.566406 38.105469 Z M 68.566406 41.214844 "/>
<path style=" stroke:none;fill-rule:nonzero;fill:rgb(13.725491%,12.156863%,12.54902%);fill-opacity:1;" d="M 71.804688 39.066406 L 71.804688 41.214844 L 71.042969 41.214844 L 71.042969 39.691406 C 70.683594 39.691406 70.421875 39.726562 70.246094 39.761719 C 69.921875 39.859375 69.769531 40.039062 69.769531 40.289062 C 69.769531 40.433594 69.828125 40.554688 69.9375 40.628906 C 70.03125 40.699219 70.148438 40.734375 70.292969 40.734375 C 70.433594 40.734375 70.566406 40.699219 70.683594 40.613281 L 70.757812 41.035156 C 70.601562 41.203125 70.339844 41.289062 69.996094 41.289062 C 69.699219 41.289062 69.472656 41.191406 69.269531 41.023438 C 69.066406 40.84375 68.972656 40.601562 68.972656 40.316406 C 68.972656 39.785156 69.363281 39.449219 70.125 39.316406 C 70.339844 39.269531 70.589844 39.257812 70.851562 39.257812 C 70.933594 39.257812 71.007812 39.257812 71.054688 39.257812 L 71.054688 39.015625 C 71.054688 38.730469 70.839844 38.585938 70.398438 38.585938 C 70.042969 38.585938 69.839844 38.71875 69.769531 39.003906 L 69.089844 38.910156 C 69.246094 38.320312 69.722656 38.019531 70.542969 38.019531 C 70.722656 38.019531 70.898438 38.042969 71.042969 38.082031 C 71.101562 38.09375 71.148438 38.105469 71.195312 38.128906 C 71.269531 38.019531 71.375 37.9375 71.53125 37.863281 C 71.671875 37.792969 71.816406 37.757812 71.957031 37.757812 C 71.984375 37.757812 72.007812 37.757812 72.019531 37.757812 L 72.078125 38.367188 C 72.019531 38.355469 71.957031 38.355469 71.910156 38.355469 C 71.769531 38.355469 71.671875 38.378906 71.625 38.429688 C 71.660156 38.476562 71.695312 38.535156 71.722656 38.585938 C 71.769531 38.71875 71.804688 38.886719 71.804688 39.066406 Z M 71.804688 39.066406 "/>
<path style=" stroke:none;fill-rule:nonzero;fill:rgb(13.725491%,12.156863%,12.54902%);fill-opacity:1;" d="M 71.054688 37.457031 L 71.054688 36.566406 L 71.816406 36.566406 L 71.816406 37.457031 Z M 71.054688 37.457031 "/>
<path style=" stroke:none;fill-rule:nonzero;fill:rgb(13.725491%,12.156863%,12.54902%);fill-opacity:1;" d="M 72.910156 38.441406 L 73.496094 40.613281 L 73.660156 40.613281 C 73.851562 40.613281 73.992188 40.507812 74.089844 40.289062 C 74.160156 40.132812 74.195312 39.929688 74.195312 39.703125 C 74.195312 38.992188 74.007812 38.632812 73.636719 38.632812 C 73.601562 38.632812 73.566406 38.632812 73.542969 38.621094 C 73.457031 38.621094 73.375 38.632812 73.316406 38.667969 L 73.21875 38.1875 C 73.375 38.09375 73.566406 38.042969 73.792969 38.042969 C 74.207031 38.042969 74.519531 38.210938 74.730469 38.550781 C 74.898438 38.835938 74.980469 39.210938 74.980469 39.652344 C 74.980469 40.039062 74.898438 40.375 74.742188 40.664062 C 74.554688 41.011719 74.28125 41.191406 73.933594 41.191406 L 72.96875 41.191406 L 72.207031 38.417969 Z M 72.910156 38.441406 "/>
<path style=" stroke:none;fill-rule:nonzero;fill:rgb(13.725491%,12.156863%,12.54902%);fill-opacity:1;" d="M 75.480469 41.214844 L 75.480469 38.105469 L 76.242188 38.105469 L 76.242188 41.214844 Z M 75.480469 41.214844 "/>
<path style=" stroke:none;fill-rule:nonzero;fill:rgb(13.725491%,12.156863%,12.54902%);fill-opacity:1;" d="M 76.765625 41.214844 L 76.765625 38.105469 L 77.527344 38.105469 L 77.527344 41.214844 Z M 76.765625 41.214844 "/>
<path style=" stroke:none;fill-rule:nonzero;fill:rgb(13.725491%,12.156863%,12.54902%);fill-opacity:1;" d="M 80.765625 39.066406 L 80.765625 41.214844 L 80.003906 41.214844 L 80.003906 39.691406 C 79.648438 39.691406 79.386719 39.726562 79.21875 39.761719 C 78.898438 39.859375 78.730469 40.039062 78.730469 40.289062 C 78.730469 40.433594 78.789062 40.554688 78.898438 40.628906 C 78.980469 40.699219 79.113281 40.734375 79.253906 40.734375 C 79.398438 40.734375 79.527344 40.699219 79.648438 40.613281 L 79.71875 41.035156 C 79.5625 41.203125 79.300781 41.289062 78.945312 41.289062 C 78.660156 41.289062 78.421875 41.191406 78.230469 41.023438 C 78.039062 40.84375 77.933594 40.601562 77.933594 40.316406 C 77.933594 39.785156 78.316406 39.449219 79.078125 39.316406 C 79.289062 39.269531 79.539062 39.257812 79.800781 39.257812 C 79.898438 39.257812 79.96875 39.257812 80.015625 39.257812 L 80.015625 39.015625 C 80.015625 38.730469 79.800781 38.585938 79.363281 38.585938 C 79.015625 38.585938 78.8125 38.71875 78.730469 39.003906 L 78.066406 38.910156 C 78.207031 38.320312 78.695312 38.019531 79.503906 38.019531 C 80.335938 38.019531 80.765625 38.367188 80.765625 39.066406 Z M 80.765625 39.066406 "/>
<path style=" stroke:none;fill-rule:nonzero;fill:rgb(13.725491%,12.156863%,12.54902%);fill-opacity:1;" d="M 81.96875 38.65625 L 82.46875 38.65625 L 82.46875 39.210938 L 81.753906 39.210938 C 81.597656 39.210938 81.457031 39.160156 81.324219 39.078125 C 81.183594 38.980469 81.085938 38.859375 81.027344 38.71875 L 81.574219 38.34375 C 81.574219 38.429688 81.625 38.5 81.71875 38.5625 C 81.800781 38.632812 81.886719 38.65625 81.96875 38.65625 M 81.96875 40.363281 L 82.46875 40.363281 L 82.46875 40.914062 L 81.753906 40.914062 C 81.597656 40.914062 81.457031 40.867188 81.324219 40.769531 C 81.183594 40.675781 81.085938 40.566406 81.027344 40.421875 L 81.574219 40.039062 C 81.574219 40.121094 81.625 40.195312 81.71875 40.265625 C 81.800781 40.328125 81.886719 40.363281 81.96875 40.363281 Z M 81.96875 40.363281 "/>
<path style=" stroke:none;fill-rule:nonzero;fill:rgb(13.725491%,12.156863%,12.54902%);fill-opacity:1;" d="M 83.574219 39.847656 L 83.789062 39.222656 C 84.003906 39.222656 84.183594 39.269531 84.289062 39.355469 C 84.382812 39.4375 84.46875 39.570312 84.515625 39.738281 L 84.707031 40.375 L 84.871094 39.402344 C 84.882812 39.304688 84.894531 39.222656 84.894531 39.171875 C 84.894531 38.777344 84.671875 38.574219 84.21875 38.574219 C 84.039062 38.574219 83.898438 38.585938 83.789062 38.632812 C 83.609375 38.691406 83.503906 38.824219 83.480469 39.015625 L 82.835938 38.910156 C 82.898438 38.609375 83.074219 38.367188 83.359375 38.222656 C 83.597656 38.09375 83.898438 38.019531 84.230469 38.019531 C 85.15625 38.019531 85.621094 38.378906 85.621094 39.113281 C 85.621094 39.234375 85.597656 39.367188 85.574219 39.511719 L 85.195312 41.214844 L 84.289062 41.214844 L 84.074219 40.496094 C 84.015625 40.265625 83.957031 40.097656 83.882812 40.015625 C 83.8125 39.90625 83.71875 39.847656 83.574219 39.847656 Z M 83.574219 39.847656 "/>
<path style=" stroke:none;fill-rule:nonzero;fill:rgb(13.725491%,12.156863%,12.54902%);fill-opacity:1;" d="M 87.96875 38.945312 C 87.90625 38.71875 87.730469 38.597656 87.429688 38.597656 C 87.085938 38.597656 86.90625 38.703125 86.90625 38.910156 C 86.90625 39.054688 87.074219 39.148438 87.417969 39.234375 C 87.894531 39.339844 88.191406 39.425781 88.277344 39.472656 C 88.597656 39.640625 88.777344 39.894531 88.777344 40.230469 C 88.777344 40.589844 88.632812 40.867188 88.359375 41.058594 C 88.121094 41.226562 87.824219 41.300781 87.441406 41.300781 C 86.753906 41.300781 86.300781 41.09375 86.097656 40.6875 C 86.050781 40.578125 86.027344 40.496094 86.015625 40.410156 L 86.730469 40.289062 C 86.777344 40.578125 87.015625 40.710938 87.457031 40.710938 C 87.824219 40.710938 88.003906 40.601562 88.003906 40.386719 C 88.003906 40.230469 87.847656 40.109375 87.515625 40.039062 C 87.050781 39.929688 86.765625 39.859375 86.65625 39.785156 C 86.324219 39.605469 86.183594 39.378906 86.183594 39.066406 C 86.183594 38.703125 86.300781 38.429688 86.539062 38.25 C 86.765625 38.082031 87.050781 37.996094 87.417969 37.996094 C 87.707031 37.996094 87.953125 38.054688 88.179688 38.1875 C 88.417969 38.34375 88.574219 38.535156 88.632812 38.8125 Z M 87.96875 38.945312 "/>
<path style=" stroke:none;fill-rule:nonzero;fill:rgb(13.725491%,12.156863%,12.54902%);fill-opacity:1;" d="M 89.347656 38.71875 L 89.15625 38.355469 C 89.503906 38.140625 89.835938 38.019531 90.179688 38.019531 C 90.644531 38.019531 90.882812 38.238281 90.882812 38.644531 L 90.882812 41.214844 L 90.121094 41.214844 L 90.121094 39.03125 C 90.121094 39.003906 90.121094 38.96875 90.121094 38.945312 C 90.121094 38.667969 90.015625 38.550781 89.789062 38.550781 C 89.703125 38.550781 89.609375 38.574219 89.515625 38.621094 C 89.476562 38.632812 89.417969 38.65625 89.347656 38.71875 Z M 89.347656 38.71875 "/>
<path style=" stroke:none;fill-rule:nonzero;fill:rgb(13.725491%,12.156863%,12.54902%);fill-opacity:1;" d="M 92.027344 39.847656 L 92.238281 39.222656 C 92.464844 39.222656 92.632812 39.269531 92.738281 39.355469 C 92.835938 39.4375 92.90625 39.570312 92.964844 39.738281 L 93.144531 40.375 L 93.3125 39.402344 C 93.324219 39.304688 93.335938 39.222656 93.335938 39.171875 C 93.335938 38.777344 93.109375 38.574219 92.65625 38.574219 C 92.464844 38.574219 92.335938 38.585938 92.226562 38.632812 C 92.050781 38.691406 91.941406 38.824219 91.917969 39.015625 L 91.265625 38.910156 C 91.335938 38.609375 91.515625 38.367188 91.789062 38.222656 C 92.039062 38.09375 92.324219 38.019531 92.65625 38.019531 C 93.585938 38.019531 94.046875 38.378906 94.046875 39.113281 C 94.046875 39.234375 94.023438 39.367188 93.988281 39.511719 L 93.609375 41.214844 L 92.703125 41.214844 L 92.5 40.496094 C 92.441406 40.265625 92.371094 40.097656 92.3125 40.015625 C 92.261719 39.90625 92.15625 39.847656 92.027344 39.847656 Z M 92.027344 39.847656 "/>
<path style=" stroke:none;fill-rule:nonzero;fill:rgb(13.725491%,12.156863%,12.54902%);fill-opacity:1;" d="M 96.417969 38.945312 C 96.359375 38.71875 96.179688 38.597656 95.882812 38.597656 C 95.523438 38.597656 95.359375 38.703125 95.359375 38.910156 C 95.359375 39.054688 95.523438 39.148438 95.871094 39.234375 C 96.359375 39.339844 96.644531 39.425781 96.738281 39.472656 C 97.058594 39.640625 97.226562 39.894531 97.226562 40.230469 C 97.226562 40.589844 97.09375 40.867188 96.808594 41.058594 C 96.570312 41.226562 96.273438 41.300781 95.882812 41.300781 C 95.203125 41.300781 94.75 41.09375 94.546875 40.6875 C 94.511719 40.578125 94.476562 40.496094 94.464844 40.410156 L 95.179688 40.289062 C 95.226562 40.578125 95.476562 40.710938 95.917969 40.710938 C 96.273438 40.710938 96.453125 40.601562 96.453125 40.386719 C 96.453125 40.230469 96.285156 40.109375 95.964844 40.039062 C 95.5 39.929688 95.214844 39.859375 95.109375 39.785156 C 94.796875 39.605469 94.644531 39.378906 94.644531 39.066406 C 94.644531 38.703125 94.761719 38.429688 95 38.25 C 95.214844 38.082031 95.511719 37.996094 95.882812 37.996094 C 96.179688 37.996094 96.417969 38.054688 96.644531 38.1875 C 96.882812 38.34375 97.035156 38.535156 97.109375 38.8125 Z M 96.417969 38.945312 "/>
</g>
</svg>
