<?xml version="1.0" encoding="utf-8"?>
<!-- Generator: Adobe Illustrator 28.0.0, SVG Export Plug-In . SVG Version: 6.00 Build 0)  -->
<svg version="1.1"
	 id="svg2" xmlns:cc="http://creativecommons.org/ns#" xmlns:dc="http://purl.org/dc/elements/1.1/" xmlns:svg="http://www.w3.org/2000/svg" xmlns:rdf="http://www.w3.org/1999/02/22-rdf-syntax-ns#"
	 xmlns="http://www.w3.org/2000/svg" xmlns:xlink="http://www.w3.org/1999/xlink" x="0px" y="0px" viewBox="0 0 831.8 407.5"
	 style="enable-background:new 0 0 831.8 407.5;" xml:space="preserve">
<style type="text/css">
	.st0{fill:#205BB2;}
	.st1{fill:#CDA44C;}
	.st2{fill:#BDBCBC;}
	.st3{fill:#205BB2;stroke:#205BB2;stroke-width:2.0807;stroke-miterlimit:5.3333;}
	.st4{fill:#231F20;}
</style>
<path id="path12" class="st0" d="M175.1,131.1c27.8,56.5,80.9,84.4,121.9,82.8c43.4-1.6,73.9-38,41.7-104.8
	c54.6,90.1,15.2,160.9-60.9,158c-74-3.8-133.8-58.9-158.9-106.6C130.2,151,156.6,137.9,175.1,131.1z"/>
<path id="path14" class="st1" d="M227.3,76.9c-20-20-57-37.8-88.2-32.2c-20.7,3.8-39.4,19.3-39.2,52.5C96.6-15.4,237.8-11.5,321,85
	C291.8,78.8,257.4,76.3,227.3,76.9z"/>
<path id="path16" class="st2" d="M38.2,130.6c137.5-74,303.7-41.5,361.2-20.7c-68.7-17.5-213.5-16.8-304.4,57
	C76.7,154.9,56.4,142.6,38.2,130.6z"/>
<path id="path18" class="st3" d="M673.1,242.5c0,9-4,15.6-12.1,20c-6.2,3.4-13.7,5-22.6,5c-7.9,0-15.3-2-22-5.9
	c-8.4-4.8-12.6-11.1-12.6-19.1l-0.1-22.1c0-4.4,0.9-8.2,5.3-11.7l6.6-5.4c2.8-2.1,5-5.2,5-9.4v-16.3h15.7v19.6
	c-0.1,4.1-2.3,8.4-6.1,11.4l-5.8,4.5c-3,2.4-5.4,4.7-5.3,10.5v18.8c0,4,2.1,7.5,6.5,10.2c3.7,2.4,8.1,3.6,12.8,3.6
	c5,0,9.2-1.2,12.8-3.2c4.2-2.6,6.2-6.2,6.2-10.6l-0.2-48.2c0-11.3,9.1-16.6,15.5-16.6L673.1,242.5z"/>
<path id="path20" class="st3" d="M487.2,265.7h-13.9v-45.3c-10,12.5-33.7,4.7-47.5,10.2c-10.1,3.9-10.9,14.3-2.3,20.3
	c7.3,5,19.9,6.1,27.4,0.7v10.9c-16.3,7.3-47,1-47-21.1c0-7.8,3.4-13.8,10.3-18c15.4-9.1,33.3-3,49.4-8.5c5-1.8,10.1-5,9.8-10.9
	c-1-19.8-57.2-17.4-57.5,9.1c-4.5-2.1-7.6-3.6-12.3-5.7c6.2-27.5,33.6-31.1,52.2-28.7c10.1,1.3,17.5,6.5,17.5,5.9c0-3.6,0-5.3,0-8.9
	c0-8,8.9-12.2,14.1-12.2L487.2,265.7L487.2,265.7z"/>
<path id="path22" class="st0" d="M502.3,178.3l16.8-0.2c0.2,20.1,0.3,40.1,0.3,60.2c0,20.8,51.4,17.7,51.3,3.2
	c0.1-15.2,0.1-30.5,0.1-45.8c0.3-9.1,7.8-16.7,17.3-17.5l0.3,105.2h-17.8V261c-3,11.7-68.3,11.1-68.3-22.7L502.3,178.3L502.3,178.3z
	"/>
<path id="path24" class="st4" d="M35.3,325v17.9h-6.4v-12.7c-3,0-5.2,0.3-6.7,0.6c-2.7,0.8-4,2.3-4,4.4c0,1.2,0.5,2.2,1.3,2.8
	c0.8,0.6,1.8,0.9,3,0.9c1.2,0,2.3-0.3,3.3-1l0.6,3.5c-1.4,1.4-3.5,2.1-6.4,2.1c-2.5,0-4.4-0.8-6.1-2.2c-1.7-1.5-2.5-3.5-2.5-5.9
	c0-4.4,3.3-7.2,9.6-8.3c1.8-0.4,3.8-0.5,6.1-0.5c0.8,0,1.4,0,1.7,0v-2c0-2.4-1.8-3.6-5.5-3.6c-2.9,0-4.7,1.1-5.3,3.5l-5.7-0.8
	c1.3-4.9,5.3-7.4,12.1-7.4c1.6,0,3,0.2,4.3,0.5c0.4,0.1,0.9,0.2,1.3,0.4c0.6-0.9,1.5-1.6,2.8-2.2c1.2-0.6,2.4-0.9,3.5-0.9
	c0.2,0,0.4,0,0.5,0l0.5,5.1c-0.5-0.1-0.9-0.1-1.4-0.1c-1.2,0-1.9,0.2-2.3,0.6c0.3,0.4,0.6,0.9,0.7,1.3C35,322.1,35.3,323.5,35.3,325
	L35.3,325z"/>
<path id="path26" class="st4" d="M32.1,313.2c-1.5,0-2.9-0.5-4-1.4c-1.2-0.9-1.8-2.1-1.8-3.7c0-1.5,0.7-2.7,1.9-3.6
	c1.1-0.9,2.4-1.3,3.9-1.3c1.5,0,2.9,0.4,4,1.2c1.2,0.9,1.7,2.2,1.7,3.7c0,1.5-0.6,2.7-1.7,3.7C35,312.7,33.6,313.2,32.1,313.2
	 M34.3,308.2c0-1.2-0.7-1.8-2.1-1.8c-0.5,0-1,0.2-1.5,0.5c-0.5,0.3-0.7,0.8-0.7,1.3c0,0.5,0.2,1,0.7,1.4c0.4,0.4,0.9,0.6,1.5,0.6
	C33.6,310.1,34.3,309.4,34.3,308.2 M40.3,322.1l-1.6-3c2.9-1.8,5.6-2.8,8.6-2.8c3.9,0,5.9,1.7,5.9,5.1v21.5h-6.4v-18.2
	c0-0.2,0-0.5,0-0.7c0-2.3-0.9-3.3-2.8-3.3c-0.8,0-1.5,0.2-2.3,0.6C41.5,321.4,41,321.6,40.3,322.1z"/>
<path id="path28" class="st4" d="M79.8,342.9h-5.7l-0.3-4.9c-1.9,3.7-4.3,5.6-7.4,5.6c-2.6,0-4.8-0.8-6.4-2.3
	c-1.7-1.7-2.5-3.7-2.5-6.2v-18h6.4V333c0,3.6,1.3,5.3,4,5.3c1.7,0,3-0.7,4.1-2.4c0.9-1.3,1.4-2.8,1.4-4.6V317h6.4
	C79.8,317,79.8,342.9,79.8,342.9z"/>
<path id="path30" class="st4" d="M73.3,311.6c-1.2,0-2.4-0.3-3.8-0.9c-1.6-0.7-2.4-1.6-2.6-2.7l4.3-3c0.4,0.8,1.1,1.4,2.3,1.9
	c1,0.5,2,0.7,2.9,0.7h9.5v4L73.3,311.6L73.3,311.6z"/>
<path id="path32" class="st4" d="M84.2,329.6c0-2.4,0.9-4.4,2.6-5.9c-0.3-0.1-0.6-0.3-0.9-0.4c-0.7-0.1-1.3-0.1-1.8-0.1v-2.9
	c0.9-0.7,2.6-1.5,4.8-2.4c2.7-1,5.2-1.5,7.4-1.5c6.9,0,10.5,2.7,10.5,8v18.6h-6.3v-17.4c0-3.1-1.6-4.6-4.8-4.6
	c-1.5,0-2.7,0.4-3.6,1.2c-1,0.9-1.5,2-1.5,3.4v17.4h-6.4L84.2,329.6L84.2,329.6z"/>
<path id="path34" class="st4" d="M116.3,319.8l4.9,18.1h1.4c1.6,0,2.9-0.9,3.6-2.7c0.6-1.3,0.9-3,0.9-4.9c0-5.9-1.6-8.9-4.8-8.9
	c-0.2,0-0.5,0-0.9-0.1c-0.7,0-1.2,0.1-1.8,0.4l-0.9-4c1.2-0.8,2.8-1.2,4.8-1.2c3.5,0,6.1,1.4,7.9,4.2c1.5,2.4,2.2,5.5,2.2,9.2
	c0,3.2-0.7,6-2,8.4c-1.7,2.9-3.9,4.4-6.9,4.4h-8l-6.4-23.1L116.3,319.8L116.3,319.8z"/>
<path id="path36" class="st4" d="M138.5,322.1l-1.6-3c2.8-1.8,5.7-2.8,8.6-2.8c3.9,0,5.9,1.8,5.9,5.2v21.4H145v-18.2
	c0-0.2,0-0.5,0-0.7c0-2.3-0.9-3.3-2.8-3.3c-0.7,0-1.5,0.2-2.3,0.6C139.7,321.4,139.2,321.6,138.5,322.1z"/>
<path id="path38" class="st4" d="M178,342.9h-5.6l-0.3-4.9c-2,3.7-4.4,5.6-7.4,5.6c-2.6,0-4.8-0.8-6.3-2.3c-1.7-1.7-2.6-3.7-2.6-6.2
	v-18h6.4V333c0,3.6,1.4,5.3,4.1,5.3c1.6,0,2.9-0.7,4-2.4c0.9-1.3,1.4-2.8,1.4-4.6V317h6.4L178,342.9L178,342.9z"/>
<path id="path40" class="st4" d="M204.6,342.9h-5.7l-0.2-4.9c-1.9,3.7-4.4,5.6-7.4,5.6c-2.6,0-4.7-0.8-6.3-2.3
	c-1.8-1.7-2.6-3.7-2.6-6.2v-18h6.4V333c0,3.6,1.3,5.3,4,5.3c1.6,0,2.9-0.7,4-2.4c0.9-1.3,1.4-2.8,1.4-4.6V317h6.3L204.6,342.9
	L204.6,342.9z"/>
<path id="path42" class="st4" d="M214,306h5.8l1,4h-3.6c-2,0-3,0.5-3,1.6c0,0.4,0.4,1.3,1,2.7c0.2,0.4,0.2,0.9,0.2,1.5v27.2h-6.3
	v-27.2c0-0.9-0.1-1.6-0.4-2.3c-0.4-0.7-0.7-1.3-1-2c-0.2-0.4-0.3-0.8-0.3-1.3c0-1.5,0.8-2.5,2.4-3.3C210.9,306.3,212.3,306,214,306z
	"/>
<path id="path44" class="st4" d="M232,317.9l-1.2,3.8c-1.1-0.5-2.2-0.8-3-0.8c-1.7,0-2.6,0.8-2.6,2.3c0,0.1,0,0.4,0,0.5
	c0,1.2,0.7,2.1,2.1,2.8c1.1,0.5,2.3,0.8,3.7,0.8v3.5c-1.4,0-2.4,0.2-3,0.5c-1,0.4-1.7,1.3-1.9,2.6c-0.1,0.3-0.1,0.5-0.1,0.8
	c0,2.9,1.7,4.2,5.3,4.2c2.9,0,4.4-1.7,4.4-5.2V317h6.4v17.4c0,6.1-3.6,9.2-10.8,9.2c-8,0-12-2.9-12-8.8c0-1.6,0.5-2.9,1.7-4.1
	c0.3-0.4,0.9-0.8,1.7-1.4c-2.4-0.8-3.6-2.9-3.6-6.4c0-2,0.6-3.5,1.9-4.6c1.2-1.2,2.8-1.8,4.8-1.8C228.2,316.5,230.4,316.9,232,317.9
	z"/>
<path id="path46" class="st4" d="M252.8,334.5c0,2.7,1.6,4.1,4.7,4.1c3.1,0,4.7-1.4,4.7-4.1V317h6.4v17.1c0,6.3-3.6,9.5-10.9,9.5
	c-3.7,0-6.5-0.6-8.2-2c-2.1-1.5-3.1-4-3.1-7.5V317h6.4V334.5z"/>
<path id="path48" class="st4" d="M273.6,322.1l-1.6-3c2.8-1.8,5.7-2.8,8.6-2.8c3.9,0,5.9,1.8,5.9,5.2v21.4h-6.4v-18.2
	c0-0.2,0-0.5,0-0.7c0-2.3-0.9-3.3-2.8-3.3c-0.7,0-1.4,0.2-2.2,0.6C274.8,321.4,274.3,321.6,273.6,322.1z"/>
<path id="path50" class="st4" d="M303.1,317.9l-1.2,3.8c-1.2-0.5-2.2-0.8-3-0.8c-1.8,0-2.6,0.8-2.6,2.3c0,0.1,0,0.4,0,0.5
	c0,1.2,0.7,2.1,2.1,2.8c1.1,0.5,2.3,0.8,3.7,0.8v3.5c-1.4,0-2.4,0.2-3,0.5c-1,0.4-1.6,1.3-1.9,2.6c0,0.3-0.1,0.5-0.1,0.8
	c0,2.9,1.8,4.2,5.3,4.2c2.9,0,4.3-1.7,4.3-5.2V317h6.5v17.4c0,6.1-3.6,9.2-10.8,9.2c-8,0-12-2.9-12-8.8c0-1.6,0.5-2.9,1.7-4.1
	c0.3-0.4,0.9-0.8,1.7-1.4c-2.4-0.8-3.5-2.9-3.5-6.4c0-2,0.6-3.5,1.8-4.6c1.3-1.2,2.8-1.8,4.8-1.8
	C299.3,316.5,301.5,316.9,303.1,317.9L303.1,317.9z"/>
<path id="path52" class="st4" d="M317.4,342.9V317h6.4v25.9H317.4z"/>
<path id="path54" class="st4" d="M328.1,342.9V317h6.4v25.9H328.1z"/>
<path id="path56" class="st4" d="M361.7,325v17.9h-6.4v-12.7c-3,0-5.2,0.3-6.7,0.6c-2.6,0.8-4,2.3-4,4.4c0,1.2,0.5,2.2,1.4,2.8
	c0.8,0.6,1.8,0.9,3,0.9c1.2,0,2.3-0.3,3.2-1l0.6,3.5c-1.4,1.4-3.5,2.1-6.5,2.1c-2.4,0-4.4-0.8-6.1-2.2c-1.6-1.5-2.4-3.5-2.4-5.9
	c0-4.4,3.2-7.2,9.6-8.3c1.8-0.4,3.9-0.5,6.1-0.5c0.8,0,1.4,0,1.8,0v-2c0-2.4-1.8-3.6-5.5-3.6c-2.9,0-4.7,1.1-5.3,3.5l-5.6-0.8
	c1.2-4.9,5.2-7.4,12.1-7.4C358.1,316.3,361.7,319.2,361.7,325z"/>
<path id="path58" class="st4" d="M371.9,321.6h4.2v4.6h-6c-1.3,0-2.5-0.4-3.6-1.1c-1.2-0.8-2-1.8-2.5-3l4.6-3.1
	c0,0.7,0.4,1.3,1.2,1.8C370.4,321.4,371.2,321.6,371.9,321.6 M371.9,335.8h4.2v4.6h-6c-1.3,0-2.5-0.4-3.6-1.2
	c-1.2-0.8-2-1.7-2.5-2.9l4.6-3.2c0,0.7,0.4,1.3,1.2,1.9C370.4,335.5,371.2,335.8,371.9,335.8z"/>
<path id="path60" class="st4" d="M380.1,342.9V317h6.4v25.9H380.1z"/>
<path id="path62" class="st4" d="M390.8,342.9V317h6.4v25.9H390.8z"/>
<path id="path64" class="st4" d="M409.8,338.7c1.2,0,1.9-0.7,1.9-2.2v-12h6v11.9c0,1.5,0.6,2.3,2.1,2.3c1.1,0,1.6-0.7,1.6-2.3V317
	h6.4v17.1c0,3.2-0.4,5.4-1.2,6.9c-1.1,1.7-3,2.6-5.8,2.6c-1.1,0-2.1-0.3-3.3-0.9c-1.1-0.7-2-1.5-2.6-2.3c-0.5,0.8-1.3,1.7-2.4,2.3
	c-1.1,0.7-2.2,0.9-3.1,0.9c-3.4,0-5.5-1.1-6.8-3.3c-1-1.9-1.5-5.3-1.5-10.2c0-8.9,2.8-13.4,8.4-13.4c1.9,0,3.4,0.4,4.4,1.2l-0.7,3.5
	c0,0-0.2,0-0.2,0c-0.5-0.1-1.2-0.3-2.1-0.3c-2,0-3.2,1.5-3.5,4.2c-0.1,1-0.1,2.7-0.1,5.1c0,2.7,0,4.3,0.1,4.9
	C407.6,337.6,408.4,338.7,409.8,338.7L409.8,338.7z"/>
<path id="path66" class="st4" d="M454.5,342.9h-5.7l-0.3-4.9c-1.9,3.7-4.4,5.6-7.4,5.6c-2.6,0-4.7-0.8-6.3-2.3
	c-1.7-1.7-2.5-3.7-2.5-6.2v-18h6.4V333c0,3.6,1.3,5.3,4,5.3c1.7,0,3-0.7,4-2.4c0.9-1.3,1.4-2.8,1.4-4.6V317h6.4L454.5,342.9
	L454.5,342.9z"/>
<path id="path68" class="st4" d="M458.9,329.6c0-2.4,0.8-4.4,2.6-5.9c-0.3-0.1-0.6-0.3-0.8-0.4c-0.7-0.1-1.3-0.1-1.7-0.1v-2.9
	c0.9-0.7,2.5-1.5,4.8-2.4c2.7-1,5.2-1.5,7.4-1.5c6.9,0,10.5,2.7,10.5,8v18.6h-6.3v-17.4c0-3.1-1.6-4.6-4.8-4.6
	c-1.5,0-2.7,0.4-3.6,1.2c-1,0.9-1.5,2-1.5,3.4v17.4h-6.4V329.6z"/>
<path id="path70" class="st4" d="M486.6,322.1l-1.6-3c2.9-1.8,5.7-2.8,8.6-2.8c3.9,0,5.9,1.8,5.9,5.2v21.4h-6.4v-18.2
	c0-0.2,0-0.5,0-0.7c0-2.3-0.9-3.3-2.8-3.3c-0.7,0-1.4,0.2-2.2,0.6C487.8,321.4,487.3,321.6,486.6,322.1z"/>
<path id="path72" class="st4" d="M519.1,324c-0.5-1.9-2-2.9-4.4-2.9c-3,0-4.4,0.9-4.4,2.6c0,1.2,1.4,2,4.3,2.7
	c4.2,0.9,6.6,1.6,7.3,2c2.7,1.4,4.1,3.5,4.1,6.3c0,3-1.1,5.3-3.4,6.9c-2,1.4-4.5,2-7.7,2c-5.8,0-9.6-1.7-11.2-5.1
	c-0.4-0.9-0.6-1.6-0.7-2.3l6-1c0.4,2.4,2.4,3.5,6.2,3.5c3,0,4.6-0.9,4.6-2.7c0-1.3-1.4-2.3-4.1-2.9c-3.9-0.9-6.3-1.5-7.2-2.1
	c-2.7-1.5-4-3.4-4-6c0-3,1.1-5.3,3.1-6.8c1.9-1.4,4.3-2.1,7.4-2.1c2.5,0,4.6,0.5,6.4,1.6c2,1.3,3.3,2.9,3.9,5.2L519.1,324z"/>
<path id="path74" class="st4" d="M538.3,328.5c-0.9,1.2-1.5,1.9-1.7,2.3c-0.8,1.1-1.1,2.4-1.1,3.7c0,2.9,1.2,4.2,3.7,4.2
	c2.6,0,3.8-1.3,3.8-4.3V317h6.4v17.1c0,6.3-3.4,9.5-10,9.5c-6.8,0-10.1-2.9-10.1-8.9c0-1.3,0.3-2.7,1.2-4c0.2-0.4,1-1.6,2.4-3.3
	l1.8-2.2c0.8-1.2,1.1-2,1.1-2.7c0-1.2-0.6-1.9-2-1.9c-0.6,0-1.1,0.1-1.7,0.4c-0.2,0.1-0.6,0.3-1.3,0.6l-1.2-3.3
	c0.4-0.4,1.2-0.7,2.1-1.1c1.4-0.5,2.8-0.8,4.3-0.8c3,0,4.7,1.5,5.3,4.5c0.1,0.4,0.1,0.8,0.1,1.2c0,1.2-0.4,2.5-1.2,3.8
	C540.1,326.3,539.4,327.2,538.3,328.5L538.3,328.5z"/>
<path id="path76" class="st4" d="M576.1,342.9h-5.6l-0.3-4.9c-1.9,3.7-4.3,5.6-7.4,5.6c-2.6,0-4.7-0.8-6.3-2.3
	c-1.7-1.7-2.6-3.7-2.6-6.2v-18h6.4V333c0,3.6,1.3,5.3,4,5.3c1.6,0,3-0.7,4-2.4c1-1.3,1.4-2.8,1.4-4.6V317h6.4L576.1,342.9
	L576.1,342.9z"/>
<path id="path78" class="st4" d="M603.3,325v17.9h-6.4v-12.7c-3,0-5.2,0.3-6.7,0.6c-2.7,0.8-4,2.3-4,4.4c0,1.2,0.5,2.2,1.4,2.8
	c0.8,0.6,1.8,0.9,3,0.9c1.2,0,2.3-0.3,3.3-1l0.6,3.5c-1.3,1.4-3.5,2.1-6.4,2.1c-2.5,0-4.4-0.8-6.1-2.2c-1.7-1.5-2.5-3.5-2.5-5.9
	c0-4.4,3.3-7.2,9.7-8.3c1.8-0.4,3.9-0.5,6.1-0.5c0.7,0,1.3,0,1.7,0v-2c0-2.4-1.8-3.6-5.5-3.6c-3,0-4.7,1.1-5.3,3.5l-5.7-0.8
	c1.3-4.9,5.3-7.4,12.2-7.4c1.5,0,3,0.2,4.2,0.5c0.5,0.1,0.9,0.2,1.3,0.4c0.6-0.9,1.5-1.6,2.8-2.2c1.2-0.6,2.4-0.9,3.6-0.9
	c0.2,0,0.4,0,0.5,0l0.5,5.1c-0.5-0.1-1-0.1-1.4-0.1c-1.2,0-2,0.2-2.4,0.6c0.3,0.4,0.6,0.9,0.8,1.3C603,322.1,603.3,323.5,603.3,325
	L603.3,325z"/>
<path id="path80" class="st4" d="M597,311.6v-7.4h6.4v7.4H597z"/>
<path id="path82" class="st4" d="M612.6,319.8l4.9,18.1h1.4c1.6,0,2.8-0.9,3.6-2.7c0.6-1.3,0.9-3,0.9-4.9c0-5.9-1.6-8.9-4.7-8.9
	c-0.3,0-0.6,0-0.8-0.1c-0.7,0-1.4,0.1-1.9,0.4l-0.8-4c1.3-0.8,2.9-1.2,4.8-1.2c3.5,0,6.1,1.4,7.9,4.2c1.4,2.4,2.1,5.5,2.1,9.2
	c0,3.2-0.7,6-2,8.4c-1.6,2.9-3.9,4.4-6.8,4.4h-8.1l-6.4-23.1L612.6,319.8L612.6,319.8z"/>
<path id="path84" class="st4" d="M634.2,342.9V317h6.4v25.9H634.2z"/>
<path id="path86" class="st4" d="M645,342.9V317h6.4v25.9H645z"/>
<path id="path88" class="st4" d="M678.6,325v17.9h-6.4v-12.7c-3,0-5.2,0.3-6.6,0.6c-2.7,0.8-4.1,2.3-4.1,4.4c0,1.2,0.5,2.2,1.4,2.8
	c0.7,0.6,1.8,0.9,3,0.9c1.2,0,2.3-0.3,3.3-1l0.6,3.5c-1.3,1.4-3.5,2.1-6.5,2.1c-2.4,0-4.4-0.8-6-2.2c-1.6-1.5-2.5-3.5-2.5-5.9
	c0-4.4,3.2-7.2,9.6-8.3c1.8-0.4,3.9-0.5,6.1-0.5c0.8,0,1.4,0,1.8,0v-2c0-2.4-1.8-3.6-5.5-3.6c-2.9,0-4.6,1.1-5.3,3.5l-5.6-0.8
	c1.2-4.9,5.3-7.4,12.1-7.4C675,316.3,678.6,319.2,678.6,325z"/>
<path id="path90" class="st4" d="M688.7,321.6h4.2v4.6h-6c-1.3,0-2.5-0.4-3.6-1.1c-1.2-0.8-2-1.8-2.5-3l4.6-3.1
	c0,0.7,0.4,1.3,1.2,1.8C687.3,321.4,688,321.6,688.7,321.6 M688.7,335.8h4.2v4.6h-6c-1.3,0-2.5-0.4-3.6-1.2c-1.2-0.8-2-1.7-2.5-2.9
	l4.6-3.2c0,0.7,0.4,1.3,1.2,1.9C687.3,335.5,688,335.8,688.7,335.8z"/>
<path id="path92" class="st4" d="M702.2,331.5l1.8-5.2c1.8,0,3.3,0.4,4.2,1.1c0.8,0.7,1.5,1.8,1.9,3.2l1.6,5.3l1.4-8.1
	c0.1-0.8,0.2-1.5,0.2-1.9c0-3.3-1.9-5-5.7-5c-1.5,0-2.7,0.1-3.6,0.5c-1.5,0.5-2.4,1.6-2.6,3.2l-5.4-0.9c0.5-2.5,2-4.5,4.4-5.7
	c2-1.1,4.5-1.7,7.3-1.7c7.8,0,11.7,3,11.7,9.1c0,1-0.2,2.1-0.4,3.3l-3.2,14.2h-7.6l-1.8-6c-0.5-1.9-1-3.3-1.6-4
	C704.2,332,703.4,331.5,702.2,331.5z"/>
<path id="path94" class="st4" d="M739.1,324c-0.5-1.9-2-2.9-4.5-2.9c-2.9,0-4.4,0.9-4.4,2.6c0,1.2,1.4,2,4.3,2.7
	c4,0.9,6.5,1.6,7.2,2c2.7,1.4,4.2,3.5,4.2,6.3c0,3-1.2,5.3-3.5,6.9c-2,1.4-4.5,2-7.7,2c-5.8,0-9.6-1.7-11.3-5.1
	c-0.4-0.9-0.6-1.6-0.7-2.3l6-1c0.4,2.4,2.4,3.5,6.1,3.5c3.1,0,4.6-0.9,4.6-2.7c0-1.3-1.3-2.3-4.1-2.9c-3.9-0.9-6.3-1.5-7.2-2.1
	c-2.8-1.5-4-3.4-4-6c0-3,1-5.3,3-6.8c1.9-1.4,4.3-2.1,7.4-2.1c2.4,0,4.5,0.5,6.4,1.6c2,1.3,3.3,2.9,3.8,5.2L739.1,324z"/>
<path id="path96" class="st4" d="M750.7,322.1l-1.6-3c2.9-1.8,5.7-2.8,8.6-2.8c3.9,0,5.9,1.8,5.9,5.2v21.4h-6.4v-18.2
	c0-0.2,0-0.5,0-0.7c0-2.3-0.9-3.3-2.8-3.3c-0.7,0-1.5,0.2-2.3,0.6C751.8,321.4,751.3,321.6,750.7,322.1z"/>
<path id="path98" class="st4" d="M773.2,331.5l1.8-5.2c1.9,0,3.3,0.4,4.2,1.1c0.8,0.7,1.4,1.8,1.9,3.2l1.5,5.3l1.4-8.1
	c0.1-0.8,0.2-1.5,0.2-1.9c0-3.3-1.9-5-5.7-5c-1.6,0-2.7,0.1-3.6,0.5c-1.5,0.5-2.4,1.6-2.6,3.2l-5.5-0.9c0.6-2.5,2.1-4.5,4.4-5.7
	c2.1-1.1,4.5-1.7,7.3-1.7c7.8,0,11.7,3,11.7,9.1c0,1-0.2,2.1-0.5,3.3l-3.2,14.2h-7.6l-1.7-6c-0.5-1.9-1.1-3.3-1.6-4
	C775.2,332,774.3,331.5,773.2,331.5z"/>
<path id="path100" class="st4" d="M810.1,324c-0.5-1.9-2-2.9-4.5-2.9c-3,0-4.4,0.9-4.4,2.6c0,1.2,1.4,2,4.3,2.7
	c4.1,0.9,6.5,1.6,7.3,2c2.7,1.4,4.1,3.5,4.1,6.3c0,3-1.1,5.3-3.5,6.9c-2,1.4-4.5,2-7.8,2c-5.7,0-9.5-1.7-11.2-5.1
	c-0.3-0.9-0.6-1.6-0.7-2.3l6-1c0.4,2.4,2.5,3.5,6.2,3.5c3,0,4.5-0.9,4.5-2.7c0-1.3-1.4-2.3-4.1-2.9c-3.9-0.9-6.3-1.5-7.2-2.1
	c-2.6-1.5-3.9-3.4-3.9-6c0-3,1-5.3,3-6.8c1.8-1.4,4.3-2.1,7.4-2.1c2.5,0,4.5,0.5,6.4,1.6c2,1.3,3.3,2.9,3.9,5.2L810.1,324z"/>
</svg>
