<?xml version="1.0" encoding="utf-8"?>
<!-- Generator: Adobe Illustrator 16.2.0, SVG Export Plug-In . SVG Version: 6.00 Build 0)  -->
<!DOCTYPE svg PUBLIC "-//W3C//DTD SVG 1.1//EN" "http://www.w3.org/Graphics/SVG/1.1/DTD/svg11.dtd">
<svg version="1.1" id="Layer_1" xmlns="http://www.w3.org/2000/svg" xmlns:xlink="http://www.w3.org/1999/xlink" x="0px" y="0px"
	 width="841.89px" height="595.28px" viewBox="0 0 841.89 595.28" enable-background="new 0 0 841.89 595.28" xml:space="preserve">
<g>
	<path fill-rule="evenodd" clip-rule="evenodd" fill="#0060AE" d="M312.402,289.623c61.421,120.28,179.547,179.547,269.868,176.313
		c96.743-3.562,164.184-81.01,92.46-223.08c120.975,191.689,33.901,342.312-134.592,336.24
		c-164.186-8.198-296.609-125.272-351.945-227.01C213.164,332.45,271.362,304.25,312.402,289.623z"/>
	<path fill-rule="evenodd" clip-rule="evenodd" fill="#CFA861" d="M428.046,174.68c-43.879-42.473-126.378-80.674-195.252-68.532
		c-45.665,7.857-87.453,41.04-87.099,111.738C138.56-21.998,451.238-13.442,635.452,191.448
		C571.218,178.949,494.801,173.247,428.046,174.68z"/>
	<path fill-rule="evenodd" clip-rule="evenodd" fill="#BCBEC0" d="M9.355,288.889c304.138-157.405,672.484-88.493,799.952-44.259
		c-152.463-37.111-473.025-35.691-674.676,121.372C94.313,340.651,49.71,314.251,9.355,288.889z"/>
</g>
</svg>
